<svg id="visual" viewBox="0 0 960 540" width="960" height="540" xmlns="http://www.w3.org/2000/svg" xmlns:xlink="http://www.w3.org/1999/xlink" version="1.1"><g stroke-width="1" stroke-linejoin="bevel"><path d="M493 294L468 244L387 329Z" fill="#5ebd39" stroke="#5ebd39"></path><path d="M468 244L324 228L387 329Z" fill="#58b035" stroke="#58b035"></path><path d="M272 345L386 413L387 329Z" fill="#3f8026" stroke="#3f8026"></path><path d="M387 329L477 435L493 294Z" fill="#58b035" stroke="#58b035"></path><path d="M386 413L477 435L387 329Z" fill="#51a431" stroke="#51a431"></path><path d="M573 131L469 143L468 244Z" fill="#64ca3d" stroke="#64ca3d"></path><path d="M468 244L469 143L324 228Z" fill="#4b982d" stroke="#4b982d"></path><path d="M324 228L272 345L387 329Z" fill="#5ebd39" stroke="#5ebd39"></path><path d="M477 435L617 331L493 294Z" fill="#7eff4d" stroke="#7eff4d"></path><path d="M493 294L617 199L468 244Z" fill="#71e445" stroke="#71e445"></path><path d="M617 331L617 199L493 294Z" fill="#5ebd39" stroke="#5ebd39"></path><path d="M617 199L573 131L468 244Z" fill="#6bd741" stroke="#6bd741"></path><path d="M506 0L344 77L469 143Z" fill="#7eff4d" stroke="#7eff4d"></path><path d="M469 143L344 77L324 228Z" fill="#4b982d" stroke="#4b982d"></path><path d="M324 228L215 203L272 345Z" fill="#64ca3d" stroke="#64ca3d"></path><path d="M237 125L215 203L324 228Z" fill="#58b035" stroke="#58b035"></path><path d="M477 435L610 458L617 331Z" fill="#64ca3d" stroke="#64ca3d"></path><path d="M386 413L444 540L477 435Z" fill="#51a431" stroke="#51a431"></path><path d="M477 435L444 540L610 458Z" fill="#71e445" stroke="#71e445"></path><path d="M391 540L444 540L386 413Z" fill="#458c2a" stroke="#458c2a"></path><path d="M229 445L391 540L386 413Z" fill="#71e445" stroke="#71e445"></path><path d="M127 339L229 445L272 345Z" fill="#3f8026" stroke="#3f8026"></path><path d="M272 345L229 445L386 413Z" fill="#51a431" stroke="#51a431"></path><path d="M344 77L237 125L324 228Z" fill="#77f249" stroke="#77f249"></path><path d="M590 0L506 0L573 131Z" fill="#58b035" stroke="#58b035"></path><path d="M573 131L506 0L469 143Z" fill="#71e445" stroke="#71e445"></path><path d="M344 77L258 0L237 125Z" fill="#458c2a" stroke="#458c2a"></path><path d="M506 0L332 0L344 77Z" fill="#3f8026" stroke="#3f8026"></path><path d="M126 251L127 339L272 345Z" fill="#458c2a" stroke="#458c2a"></path><path d="M126 251L272 345L215 203Z" fill="#51a431" stroke="#51a431"></path><path d="M124 117L215 203L237 125Z" fill="#77f249" stroke="#77f249"></path><path d="M124 117L126 251L215 203Z" fill="#4b982d" stroke="#4b982d"></path><path d="M610 458L740 360L617 331Z" fill="#4b982d" stroke="#4b982d"></path><path d="M617 331L736 184L617 199Z" fill="#7eff4d" stroke="#7eff4d"></path><path d="M617 199L683 83L573 131Z" fill="#64ca3d" stroke="#64ca3d"></path><path d="M444 540L630 540L610 458Z" fill="#71e445" stroke="#71e445"></path><path d="M610 458L748 459L740 360Z" fill="#3f8026" stroke="#3f8026"></path><path d="M740 360L736 184L617 331Z" fill="#71e445" stroke="#71e445"></path><path d="M736 184L683 83L617 199Z" fill="#77f249" stroke="#77f249"></path><path d="M229 445L222 540L391 540Z" fill="#58b035" stroke="#58b035"></path><path d="M102 467L222 540L229 445Z" fill="#71e445" stroke="#71e445"></path><path d="M683 83L590 0L573 131Z" fill="#5ebd39" stroke="#5ebd39"></path><path d="M332 0L258 0L344 77Z" fill="#3f8026" stroke="#3f8026"></path><path d="M630 540L686 540L610 458Z" fill="#71e445" stroke="#71e445"></path><path d="M686 540L748 459L610 458Z" fill="#51a431" stroke="#51a431"></path><path d="M740 360L841 209L736 184Z" fill="#4b982d" stroke="#4b982d"></path><path d="M258 0L124 117L237 125Z" fill="#7eff4d" stroke="#7eff4d"></path><path d="M0 424L102 467L127 339Z" fill="#6bd741" stroke="#6bd741"></path><path d="M0 321L127 339L126 251Z" fill="#51a431" stroke="#51a431"></path><path d="M127 339L102 467L229 445Z" fill="#3f8026" stroke="#3f8026"></path><path d="M683 83L693 0L590 0Z" fill="#5ebd39" stroke="#5ebd39"></path><path d="M841 0L693 0L683 83Z" fill="#6bd741" stroke="#6bd741"></path><path d="M102 467L110 540L222 540Z" fill="#5ebd39" stroke="#5ebd39"></path><path d="M869 318L841 209L740 360Z" fill="#458c2a" stroke="#458c2a"></path><path d="M736 184L867 130L683 83Z" fill="#5ebd39" stroke="#5ebd39"></path><path d="M0 220L0 321L126 251Z" fill="#3f8026" stroke="#3f8026"></path><path d="M102 467L0 540L110 540Z" fill="#3f8026" stroke="#3f8026"></path><path d="M258 0L111 0L124 117Z" fill="#58b035" stroke="#58b035"></path><path d="M124 117L0 220L126 251Z" fill="#6bd741" stroke="#6bd741"></path><path d="M876 412L740 360L748 459Z" fill="#64ca3d" stroke="#64ca3d"></path><path d="M876 412L869 318L740 360Z" fill="#3f8026" stroke="#3f8026"></path><path d="M0 127L0 220L124 117Z" fill="#6bd741" stroke="#6bd741"></path><path d="M0 321L0 424L127 339Z" fill="#51a431" stroke="#51a431"></path><path d="M686 540L814 540L748 459Z" fill="#7eff4d" stroke="#7eff4d"></path><path d="M814 540L876 412L748 459Z" fill="#3f8026" stroke="#3f8026"></path><path d="M960 216L867 130L841 209Z" fill="#7eff4d" stroke="#7eff4d"></path><path d="M841 209L867 130L736 184Z" fill="#6bd741" stroke="#6bd741"></path><path d="M960 216L841 209L869 318Z" fill="#51a431" stroke="#51a431"></path><path d="M111 0L0 127L124 117Z" fill="#71e445" stroke="#71e445"></path><path d="M0 424L0 540L102 467Z" fill="#6bd741" stroke="#6bd741"></path><path d="M867 130L841 0L683 83Z" fill="#3f8026" stroke="#3f8026"></path><path d="M111 0L0 0L0 127Z" fill="#6bd741" stroke="#6bd741"></path><path d="M960 449L960 330L876 412Z" fill="#7eff4d" stroke="#7eff4d"></path><path d="M876 412L960 330L869 318Z" fill="#71e445" stroke="#71e445"></path><path d="M867 130L960 0L841 0Z" fill="#64ca3d" stroke="#64ca3d"></path><path d="M960 330L960 216L869 318Z" fill="#4b982d" stroke="#4b982d"></path><path d="M960 540L960 449L876 412Z" fill="#77f249" stroke="#77f249"></path><path d="M960 216L960 119L867 130Z" fill="#3f8026" stroke="#3f8026"></path><path d="M814 540L960 540L876 412Z" fill="#64ca3d" stroke="#64ca3d"></path><path d="M960 119L960 0L867 130Z" fill="#5ebd39" stroke="#5ebd39"></path></g></svg>