<svg id="visual" viewBox="0 0 540 960" width="540" height="960" xmlns="http://www.w3.org/2000/svg" xmlns:xlink="http://www.w3.org/1999/xlink" version="1.1"><g stroke-width="1" stroke-linejoin="bevel"><path d="M266 425L307.5 392L250 365Z" fill="#6bd741" stroke="#6bd741"></path><path d="M250 365L227.5 385L266 425Z" fill="#71e445" stroke="#71e445"></path><path d="M307.5 392L264 327L250 365Z" fill="#4b982d" stroke="#4b982d"></path><path d="M250 365L230.5 331L227.5 385Z" fill="#58b035" stroke="#58b035"></path><path d="M264 327L230.5 331L250 365Z" fill="#7eff4d" stroke="#7eff4d"></path><path d="M266 425L342.5 424L307.5 392Z" fill="#5ebd39" stroke="#5ebd39"></path><path d="M307.5 392L313.5 324L264 327Z" fill="#64ca3d" stroke="#64ca3d"></path><path d="M394 337L313.5 324L307.5 392Z" fill="#71e445" stroke="#71e445"></path><path d="M140 351L184.5 449L227.5 385Z" fill="#71e445" stroke="#71e445"></path><path d="M227.5 385L184.5 449L266 425Z" fill="#4b982d" stroke="#4b982d"></path><path d="M266 425L258 540L342.5 424Z" fill="#4b982d" stroke="#4b982d"></path><path d="M313.5 324L263 285L264 327Z" fill="#71e445" stroke="#71e445"></path><path d="M264 327L263 285L230.5 331Z" fill="#51a431" stroke="#51a431"></path><path d="M342.5 424L394 337L307.5 392Z" fill="#3f8026" stroke="#3f8026"></path><path d="M184.5 449L224.5 512L266 425Z" fill="#71e445" stroke="#71e445"></path><path d="M342.5 424L416 469L396 409Z" fill="#7eff4d" stroke="#7eff4d"></path><path d="M396 409L394 337L342.5 424Z" fill="#71e445" stroke="#71e445"></path><path d="M313.5 324L315.5 224L263 285Z" fill="#77f249" stroke="#77f249"></path><path d="M144 319L140 351L230.5 331Z" fill="#3f8026" stroke="#3f8026"></path><path d="M230.5 331L140 351L227.5 385Z" fill="#4b982d" stroke="#4b982d"></path><path d="M162 270L144 319L230.5 331Z" fill="#3f8026" stroke="#3f8026"></path><path d="M224.5 512L258 540L266 425Z" fill="#7eff4d" stroke="#7eff4d"></path><path d="M98 436L147 481L184.5 449Z" fill="#3f8026" stroke="#3f8026"></path><path d="M184.5 449L147 481L224.5 512Z" fill="#71e445" stroke="#71e445"></path><path d="M224.5 512L251 595L258 540Z" fill="#5ebd39" stroke="#5ebd39"></path><path d="M395 500L416 469L342.5 424Z" fill="#77f249" stroke="#77f249"></path><path d="M396 409L484.5 349L394 337Z" fill="#7eff4d" stroke="#7eff4d"></path><path d="M373.5 533L395 500L342.5 424Z" fill="#77f249" stroke="#77f249"></path><path d="M263 285L162 270L230.5 331Z" fill="#6bd741" stroke="#6bd741"></path><path d="M394 337L379 257L313.5 324Z" fill="#58b035" stroke="#58b035"></path><path d="M263 285L193.5 222L162 270Z" fill="#5ebd39" stroke="#5ebd39"></path><path d="M379 257L315.5 224L313.5 324Z" fill="#5ebd39" stroke="#5ebd39"></path><path d="M258 540L373.5 533L342.5 424Z" fill="#71e445" stroke="#71e445"></path><path d="M395 500L461.5 490L416 469Z" fill="#64ca3d" stroke="#64ca3d"></path><path d="M379 257L323.5 220L315.5 224Z" fill="#58b035" stroke="#58b035"></path><path d="M262 179L193.5 222L263 285Z" fill="#458c2a" stroke="#458c2a"></path><path d="M86.5 447L98 436L73.5 354Z" fill="#3f8026" stroke="#3f8026"></path><path d="M140 351L98 436L184.5 449Z" fill="#6bd741" stroke="#6bd741"></path><path d="M98 436L140 351L73.5 354Z" fill="#6bd741" stroke="#6bd741"></path><path d="M262 179L263 285L315.5 224Z" fill="#64ca3d" stroke="#64ca3d"></path><path d="M258 540L333.5 569L373.5 533Z" fill="#3f8026" stroke="#3f8026"></path><path d="M73.5 354L140 351L144 319Z" fill="#4b982d" stroke="#4b982d"></path><path d="M98 436L86.5 447L147 481Z" fill="#3f8026" stroke="#3f8026"></path><path d="M193.5 222L157 228L162 270Z" fill="#58b035" stroke="#58b035"></path><path d="M58.5 347L73.5 354L74.5 246Z" fill="#77f249" stroke="#77f249"></path><path d="M73.5 354L144 319L74.5 246Z" fill="#6bd741" stroke="#6bd741"></path><path d="M166.5 597L251 595L224.5 512Z" fill="#5ebd39" stroke="#5ebd39"></path><path d="M258 540L283 616L333.5 569Z" fill="#51a431" stroke="#51a431"></path><path d="M166.5 597L224.5 512L147 481Z" fill="#77f249" stroke="#77f249"></path><path d="M312.5 161L262 179L315.5 224Z" fill="#7eff4d" stroke="#7eff4d"></path><path d="M193.5 222L194.5 187L157 228Z" fill="#6bd741" stroke="#6bd741"></path><path d="M469.5 580L395 500L373.5 533Z" fill="#77f249" stroke="#77f249"></path><path d="M469.5 580L461.5 490L395 500Z" fill="#58b035" stroke="#58b035"></path><path d="M416 469L489.5 469L396 409Z" fill="#4b982d" stroke="#4b982d"></path><path d="M394 337L491.5 303L379 257Z" fill="#458c2a" stroke="#458c2a"></path><path d="M489.5 469L484.5 349L396 409Z" fill="#4b982d" stroke="#4b982d"></path><path d="M262 179L194.5 187L193.5 222Z" fill="#77f249" stroke="#77f249"></path><path d="M74.5 246L144 319L162 270Z" fill="#3f8026" stroke="#3f8026"></path><path d="M73.5 354L58.5 347L86.5 447Z" fill="#71e445" stroke="#71e445"></path><path d="M461.5 187L390 200L379 257Z" fill="#7eff4d" stroke="#7eff4d"></path><path d="M379 257L390 200L323.5 220Z" fill="#51a431" stroke="#51a431"></path><path d="M323.5 220L312.5 161L315.5 224Z" fill="#6bd741" stroke="#6bd741"></path><path d="M0 483L66.5 480L86.5 447Z" fill="#3f8026" stroke="#3f8026"></path><path d="M86.5 447L66.5 480L147 481Z" fill="#7eff4d" stroke="#7eff4d"></path><path d="M251 595L283 616L258 540Z" fill="#458c2a" stroke="#458c2a"></path><path d="M333.5 569L402 594L373.5 533Z" fill="#58b035" stroke="#58b035"></path><path d="M188.5 663L283 616L251 595Z" fill="#77f249" stroke="#77f249"></path><path d="M461.5 490L489.5 469L416 469Z" fill="#6bd741" stroke="#6bd741"></path><path d="M109 561L166.5 597L147 481Z" fill="#5ebd39" stroke="#5ebd39"></path><path d="M390 200L312.5 161L323.5 220Z" fill="#3f8026" stroke="#3f8026"></path><path d="M262 179L188.5 155L194.5 187Z" fill="#64ca3d" stroke="#64ca3d"></path><path d="M540 315L491.5 303L484.5 349Z" fill="#64ca3d" stroke="#64ca3d"></path><path d="M484.5 349L491.5 303L394 337Z" fill="#77f249" stroke="#77f249"></path><path d="M84.5 548L109 561L147 481Z" fill="#71e445" stroke="#71e445"></path><path d="M388 628L402 594L333.5 569Z" fill="#7eff4d" stroke="#7eff4d"></path><path d="M461.5 490L540 547L489.5 469Z" fill="#51a431" stroke="#51a431"></path><path d="M66.5 480L84.5 548L147 481Z" fill="#77f249" stroke="#77f249"></path><path d="M124 664L188.5 663L166.5 597Z" fill="#3f8026" stroke="#3f8026"></path><path d="M71.5 161L74.5 246L157 228Z" fill="#3f8026" stroke="#3f8026"></path><path d="M157 228L74.5 246L162 270Z" fill="#458c2a" stroke="#458c2a"></path><path d="M273 60L188.5 155L262 179Z" fill="#71e445" stroke="#71e445"></path><path d="M194.5 187L146 161L157 228Z" fill="#77f249" stroke="#77f249"></path><path d="M491.5 303L497.5 270L379 257Z" fill="#4b982d" stroke="#4b982d"></path><path d="M540 315L497.5 270L491.5 303Z" fill="#6bd741" stroke="#6bd741"></path><path d="M370 683L342.5 638L316.5 750Z" fill="#4b982d" stroke="#4b982d"></path><path d="M283 616L342.5 638L333.5 569Z" fill="#71e445" stroke="#71e445"></path><path d="M188.5 155L146 161L194.5 187Z" fill="#51a431" stroke="#51a431"></path><path d="M342.5 638L388 628L333.5 569Z" fill="#4b982d" stroke="#4b982d"></path><path d="M402 594L469.5 580L373.5 533Z" fill="#58b035" stroke="#58b035"></path><path d="M540 417L540 384L484.5 349Z" fill="#6bd741" stroke="#6bd741"></path><path d="M540 547L540 417L489.5 469Z" fill="#6bd741" stroke="#6bd741"></path><path d="M489.5 469L540 417L484.5 349Z" fill="#3f8026" stroke="#3f8026"></path><path d="M466.5 674L469.5 580L402 594Z" fill="#71e445" stroke="#71e445"></path><path d="M0 289L0 347L58.5 347Z" fill="#58b035" stroke="#58b035"></path><path d="M58.5 347L0 347L86.5 447Z" fill="#7eff4d" stroke="#7eff4d"></path><path d="M66.5 480L0 544L84.5 548Z" fill="#7eff4d" stroke="#7eff4d"></path><path d="M540 384L540 315L484.5 349Z" fill="#458c2a" stroke="#458c2a"></path><path d="M540 243L461.5 187L497.5 270Z" fill="#71e445" stroke="#71e445"></path><path d="M497.5 270L461.5 187L379 257Z" fill="#3f8026" stroke="#3f8026"></path><path d="M437 123L305 93L312.5 161Z" fill="#64ca3d" stroke="#64ca3d"></path><path d="M88.5 640L166.5 597L109 561Z" fill="#64ca3d" stroke="#64ca3d"></path><path d="M166.5 597L188.5 663L251 595Z" fill="#4b982d" stroke="#4b982d"></path><path d="M0 347L0 483L86.5 447Z" fill="#6bd741" stroke="#6bd741"></path><path d="M84.5 548L88.5 640L109 561Z" fill="#71e445" stroke="#71e445"></path><path d="M74.5 246L0 289L58.5 347Z" fill="#58b035" stroke="#58b035"></path><path d="M0 287L0 289L74.5 246Z" fill="#71e445" stroke="#71e445"></path><path d="M0 192L0 287L74.5 246Z" fill="#64ca3d" stroke="#64ca3d"></path><path d="M437 123L312.5 161L390 200Z" fill="#71e445" stroke="#71e445"></path><path d="M312.5 161L305 93L262 179Z" fill="#6bd741" stroke="#6bd741"></path><path d="M188.5 155L167.5 85L146 161Z" fill="#58b035" stroke="#58b035"></path><path d="M540 315L540 243L497.5 270Z" fill="#71e445" stroke="#71e445"></path><path d="M55.5 156L71.5 161L46.5 46Z" fill="#51a431" stroke="#51a431"></path><path d="M146 161L71.5 161L157 228Z" fill="#6bd741" stroke="#6bd741"></path><path d="M342.5 638L370 683L388 628Z" fill="#6bd741" stroke="#6bd741"></path><path d="M388 628L466.5 674L402 594Z" fill="#458c2a" stroke="#458c2a"></path><path d="M247 716L342.5 638L283 616Z" fill="#458c2a" stroke="#458c2a"></path><path d="M540 578L540 547L469.5 580Z" fill="#64ca3d" stroke="#64ca3d"></path><path d="M469.5 580L540 547L461.5 490Z" fill="#6bd741" stroke="#6bd741"></path><path d="M0 613L88.5 640L84.5 548Z" fill="#3f8026" stroke="#3f8026"></path><path d="M88.5 640L124 664L166.5 597Z" fill="#51a431" stroke="#51a431"></path><path d="M188.5 663L223.5 706L283 616Z" fill="#58b035" stroke="#58b035"></path><path d="M0 483L0 544L66.5 480Z" fill="#3f8026" stroke="#3f8026"></path><path d="M474.5 114L437 123L461.5 187Z" fill="#51a431" stroke="#51a431"></path><path d="M461.5 187L437 123L390 200Z" fill="#64ca3d" stroke="#64ca3d"></path><path d="M0 544L0 551L84.5 548Z" fill="#6bd741" stroke="#6bd741"></path><path d="M113 731L223.5 706L188.5 663Z" fill="#7eff4d" stroke="#7eff4d"></path><path d="M167.5 85L71.5 161L146 161Z" fill="#77f249" stroke="#77f249"></path><path d="M71.5 161L55.5 156L74.5 246Z" fill="#4b982d" stroke="#4b982d"></path><path d="M273 60L167.5 85L188.5 155Z" fill="#3f8026" stroke="#3f8026"></path><path d="M261 749L247 716L223.5 706Z" fill="#6bd741" stroke="#6bd741"></path><path d="M223.5 706L247 716L283 616Z" fill="#51a431" stroke="#51a431"></path><path d="M540 623L540 578L469.5 580Z" fill="#3f8026" stroke="#3f8026"></path><path d="M337.5 55L273 60L305 93Z" fill="#7eff4d" stroke="#7eff4d"></path><path d="M305 93L273 60L262 179Z" fill="#5ebd39" stroke="#5ebd39"></path><path d="M540 243L540 191L461.5 187Z" fill="#3f8026" stroke="#3f8026"></path><path d="M55.5 156L0 192L74.5 246Z" fill="#71e445" stroke="#71e445"></path><path d="M437 123L337.5 55L305 93Z" fill="#458c2a" stroke="#458c2a"></path><path d="M417 54L337.5 55L437 123Z" fill="#4b982d" stroke="#4b982d"></path><path d="M540 131L474.5 114L461.5 187Z" fill="#6bd741" stroke="#6bd741"></path><path d="M370 683L466.5 674L388 628Z" fill="#6bd741" stroke="#6bd741"></path><path d="M446.5 719L466.5 674L370 683Z" fill="#6bd741" stroke="#6bd741"></path><path d="M56.5 700L113 731L124 664Z" fill="#77f249" stroke="#77f249"></path><path d="M173.5 793L261 749L223.5 706Z" fill="#51a431" stroke="#51a431"></path><path d="M0 551L0 613L84.5 548Z" fill="#64ca3d" stroke="#64ca3d"></path><path d="M466.5 674L540 623L469.5 580Z" fill="#77f249" stroke="#77f249"></path><path d="M113 731L188.5 663L124 664Z" fill="#4b982d" stroke="#4b982d"></path><path d="M316.5 750L355.5 740L370 683Z" fill="#58b035" stroke="#58b035"></path><path d="M316.5 750L342.5 638L247 716Z" fill="#64ca3d" stroke="#64ca3d"></path><path d="M261 749L316.5 750L247 716Z" fill="#458c2a" stroke="#458c2a"></path><path d="M453.5 58L417 54L437 123Z" fill="#58b035" stroke="#58b035"></path><path d="M355.5 740L446.5 719L370 683Z" fill="#77f249" stroke="#77f249"></path><path d="M466.5 674L540 716L540 623Z" fill="#3f8026" stroke="#3f8026"></path><path d="M419 764L446.5 719L355.5 740Z" fill="#51a431" stroke="#51a431"></path><path d="M540 191L540 131L461.5 187Z" fill="#5ebd39" stroke="#5ebd39"></path><path d="M474.5 114L453.5 58L437 123Z" fill="#4b982d" stroke="#4b982d"></path><path d="M56.5 700L124 664L88.5 640Z" fill="#6bd741" stroke="#6bd741"></path><path d="M0 613L56.5 700L88.5 640Z" fill="#4b982d" stroke="#4b982d"></path><path d="M540 56L453.5 58L474.5 114Z" fill="#51a431" stroke="#51a431"></path><path d="M168.5 0L148 32L167.5 85Z" fill="#71e445" stroke="#71e445"></path><path d="M167.5 85L46.5 46L71.5 161Z" fill="#4b982d" stroke="#4b982d"></path><path d="M55.5 156L0 94L0 192Z" fill="#4b982d" stroke="#4b982d"></path><path d="M168.5 0L167.5 85L273 60Z" fill="#71e445" stroke="#71e445"></path><path d="M291 0L273 60L337.5 55Z" fill="#64ca3d" stroke="#64ca3d"></path><path d="M338.5 0L337.5 55L417 54Z" fill="#458c2a" stroke="#458c2a"></path><path d="M338.5 0L291 0L337.5 55Z" fill="#51a431" stroke="#51a431"></path><path d="M421 0L338.5 0L417 54Z" fill="#3f8026" stroke="#3f8026"></path><path d="M423 801L355.5 740L312.5 840Z" fill="#51a431" stroke="#51a431"></path><path d="M423 801L419 764L355.5 740Z" fill="#64ca3d" stroke="#64ca3d"></path><path d="M446.5 719L486.5 740L466.5 674Z" fill="#458c2a" stroke="#458c2a"></path><path d="M46.5 46L0 94L55.5 156Z" fill="#71e445" stroke="#71e445"></path><path d="M113 731L152 777L223.5 706Z" fill="#6bd741" stroke="#6bd741"></path><path d="M261 749L275 808L316.5 750Z" fill="#71e445" stroke="#71e445"></path><path d="M75.5 759L152 777L113 731Z" fill="#7eff4d" stroke="#7eff4d"></path><path d="M291 0L168.5 0L273 60Z" fill="#51a431" stroke="#51a431"></path><path d="M148 32L46.5 46L167.5 85Z" fill="#77f249" stroke="#77f249"></path><path d="M168.5 0L168 0L148 32Z" fill="#7eff4d" stroke="#7eff4d"></path><path d="M419 764L486.5 740L446.5 719Z" fill="#7eff4d" stroke="#7eff4d"></path><path d="M68.5 0L46.5 46L148 32Z" fill="#7eff4d" stroke="#7eff4d"></path><path d="M152 777L173.5 793L223.5 706Z" fill="#7eff4d" stroke="#7eff4d"></path><path d="M178.5 807L275 808L261 749Z" fill="#4b982d" stroke="#4b982d"></path><path d="M0 740L75.5 759L56.5 700Z" fill="#64ca3d" stroke="#64ca3d"></path><path d="M56.5 700L75.5 759L113 731Z" fill="#7eff4d" stroke="#7eff4d"></path><path d="M141 821L178.5 807L173.5 793Z" fill="#5ebd39" stroke="#5ebd39"></path><path d="M438.5 0L417 54L453.5 58Z" fill="#6bd741" stroke="#6bd741"></path><path d="M438.5 0L421 0L417 54Z" fill="#58b035" stroke="#58b035"></path><path d="M486.5 740L540 716L466.5 674Z" fill="#64ca3d" stroke="#64ca3d"></path><path d="M540 0L438.5 0L453.5 58Z" fill="#58b035" stroke="#58b035"></path><path d="M141 821L173.5 793L152 777Z" fill="#58b035" stroke="#58b035"></path><path d="M173.5 793L178.5 807L261 749Z" fill="#71e445" stroke="#71e445"></path><path d="M540 131L540 56L474.5 114Z" fill="#5ebd39" stroke="#5ebd39"></path><path d="M312.5 840L355.5 740L316.5 750Z" fill="#5ebd39" stroke="#5ebd39"></path><path d="M419 764L423 801L486.5 740Z" fill="#4b982d" stroke="#4b982d"></path><path d="M486.5 740L540 781L540 716Z" fill="#6bd741" stroke="#6bd741"></path><path d="M0 0L0 45L46.5 46Z" fill="#58b035" stroke="#58b035"></path><path d="M46.5 46L0 45L0 94Z" fill="#5ebd39" stroke="#5ebd39"></path><path d="M168 0L68.5 0L148 32Z" fill="#58b035" stroke="#58b035"></path><path d="M0 613L0 740L56.5 700Z" fill="#458c2a" stroke="#458c2a"></path><path d="M75.5 759L141 821L152 777Z" fill="#71e445" stroke="#71e445"></path><path d="M0 740L0 746L75.5 759Z" fill="#64ca3d" stroke="#64ca3d"></path><path d="M48.5 810L141 821L75.5 759Z" fill="#51a431" stroke="#51a431"></path><path d="M314.5 862L312.5 840L306 880Z" fill="#64ca3d" stroke="#64ca3d"></path><path d="M275 808L312.5 840L316.5 750Z" fill="#5ebd39" stroke="#5ebd39"></path><path d="M312.5 840L275 808L306 880Z" fill="#5ebd39" stroke="#5ebd39"></path><path d="M442.5 835L486.5 740L423 801Z" fill="#77f249" stroke="#77f249"></path><path d="M442.5 835L540 781L486.5 740Z" fill="#64ca3d" stroke="#64ca3d"></path><path d="M169 867L275 808L178.5 807Z" fill="#458c2a" stroke="#458c2a"></path><path d="M312.5 840L314.5 862L423 801Z" fill="#64ca3d" stroke="#64ca3d"></path><path d="M540 56L540 0L453.5 58Z" fill="#5ebd39" stroke="#5ebd39"></path><path d="M0 746L48.5 810L75.5 759Z" fill="#6bd741" stroke="#6bd741"></path><path d="M141 821L169 867L178.5 807Z" fill="#71e445" stroke="#71e445"></path><path d="M314.5 862L442.5 835L423 801Z" fill="#6bd741" stroke="#6bd741"></path><path d="M68.5 0L0 0L46.5 46Z" fill="#5ebd39" stroke="#5ebd39"></path><path d="M89.5 869L169 867L141 821Z" fill="#64ca3d" stroke="#64ca3d"></path><path d="M213.5 924L306 880L275 808Z" fill="#6bd741" stroke="#6bd741"></path><path d="M438 929L471.5 914L442.5 835Z" fill="#3f8026" stroke="#3f8026"></path><path d="M48.5 810L89.5 869L141 821Z" fill="#5ebd39" stroke="#5ebd39"></path><path d="M169 867L213.5 924L275 808Z" fill="#64ca3d" stroke="#64ca3d"></path><path d="M0 881L89.5 869L48.5 810Z" fill="#51a431" stroke="#51a431"></path><path d="M0 746L0 833L48.5 810Z" fill="#7eff4d" stroke="#7eff4d"></path><path d="M442.5 835L540 849L540 781Z" fill="#71e445" stroke="#71e445"></path><path d="M540 860L540 849L442.5 835Z" fill="#5ebd39" stroke="#5ebd39"></path><path d="M234.5 960L213.5 924L127 960Z" fill="#3f8026" stroke="#3f8026"></path><path d="M127 960L213.5 924L169 867Z" fill="#7eff4d" stroke="#7eff4d"></path><path d="M471.5 914L540 860L442.5 835Z" fill="#7eff4d" stroke="#7eff4d"></path><path d="M442.5 835L314.5 862L438 929Z" fill="#6bd741" stroke="#6bd741"></path><path d="M438 929L314.5 862L306 880Z" fill="#58b035" stroke="#58b035"></path><path d="M0 833L0 881L48.5 810Z" fill="#58b035" stroke="#58b035"></path><path d="M320.5 960L438 929L306 880Z" fill="#7eff4d" stroke="#7eff4d"></path><path d="M234.5 960L246 960L213.5 924Z" fill="#5ebd39" stroke="#5ebd39"></path><path d="M213.5 924L246 960L306 880Z" fill="#51a431" stroke="#51a431"></path><path d="M127 960L169 867L89.5 869Z" fill="#51a431" stroke="#51a431"></path><path d="M246 960L320.5 960L306 880Z" fill="#51a431" stroke="#51a431"></path><path d="M38.5 960L127 960L89.5 869Z" fill="#6bd741" stroke="#6bd741"></path><path d="M320.5 960L439 960L438 929Z" fill="#4b982d" stroke="#4b982d"></path><path d="M438 929L467.5 960L471.5 914Z" fill="#5ebd39" stroke="#5ebd39"></path><path d="M471.5 914L540 960L540 860Z" fill="#71e445" stroke="#71e445"></path><path d="M439 960L467.5 960L438 929Z" fill="#3f8026" stroke="#3f8026"></path><path d="M0 881L38.5 960L89.5 869Z" fill="#64ca3d" stroke="#64ca3d"></path><path d="M467.5 960L540 960L471.5 914Z" fill="#58b035" stroke="#58b035"></path><path d="M0 881L0 960L38.5 960Z" fill="#51a431" stroke="#51a431"></path></g></svg>