<svg id="visual" viewBox="0 0 960 540" width="960" height="540" xmlns="http://www.w3.org/2000/svg" xmlns:xlink="http://www.w3.org/1999/xlink" version="1.1"><rect x="0" y="0" width="960" height="540" fill="#001122"></rect><path d="M0 338L16 340.2C32 342.3 64 346.7 96 350.3C128 354 160 357 192 352.8C224 348.7 256 337.3 288 338.8C320 340.3 352 354.7 384 365.3C416 376 448 383 480 387.8C512 392.7 544 395.3 576 396.5C608 397.7 640 397.3 672 382.5C704 367.7 736 338.3 768 329.2C800 320 832 331 864 335C896 339 928 336 944 334.5L960 333L960 541L944 541C928 541 896 541 864 541C832 541 800 541 768 541C736 541 704 541 672 541C640 541 608 541 576 541C544 541 512 541 480 541C448 541 416 541 384 541C352 541 320 541 288 541C256 541 224 541 192 541C160 541 128 541 96 541C64 541 32 541 16 541L0 541Z" fill="#69fa69"></path><path d="M0 397L16 397.8C32 398.7 64 400.3 96 405.2C128 410 160 418 192 412.2C224 406.3 256 386.7 288 380.8C320 375 352 383 384 389.7C416 396.3 448 401.7 480 394.8C512 388 544 369 576 363.2C608 357.3 640 364.7 672 372.7C704 380.7 736 389.3 768 394.8C800 400.3 832 402.7 864 399.7C896 396.7 928 388.3 944 384.2L960 380L960 541L944 541C928 541 896 541 864 541C832 541 800 541 768 541C736 541 704 541 672 541C640 541 608 541 576 541C544 541 512 541 480 541C448 541 416 541 384 541C352 541 320 541 288 541C256 541 224 541 192 541C160 541 128 541 96 541C64 541 32 541 16 541L0 541Z" fill="#5acf58"></path><path d="M0 407L16 413.3C32 419.7 64 432.3 96 433.7C128 435 160 425 192 419.2C224 413.3 256 411.7 288 413.8C320 416 352 422 384 424.7C416 427.3 448 426.7 480 423.5C512 420.3 544 414.7 576 418.2C608 421.7 640 434.3 672 439.7C704 445 736 443 768 435.7C800 428.3 832 415.7 864 417.3C896 419 928 435 944 443L960 451L960 541L944 541C928 541 896 541 864 541C832 541 800 541 768 541C736 541 704 541 672 541C640 541 608 541 576 541C544 541 512 541 480 541C448 541 416 541 384 541C352 541 320 541 288 541C256 541 224 541 192 541C160 541 128 541 96 541C64 541 32 541 16 541L0 541Z" fill="#4ba648"></path><path d="M0 482L16 476.8C32 471.7 64 461.3 96 458.7C128 456 160 461 192 458.3C224 455.7 256 445.3 288 442C320 438.7 352 442.3 384 447.5C416 452.7 448 459.3 480 462.5C512 465.7 544 465.3 576 467C608 468.7 640 472.3 672 473C704 473.7 736 471.3 768 463.5C800 455.7 832 442.3 864 440.8C896 439.3 928 449.7 944 454.8L960 460L960 541L944 541C928 541 896 541 864 541C832 541 800 541 768 541C736 541 704 541 672 541C640 541 608 541 576 541C544 541 512 541 480 541C448 541 416 541 384 541C352 541 320 541 288 541C256 541 224 541 192 541C160 541 128 541 96 541C64 541 32 541 16 541L0 541Z" fill="#3c7e38"></path><path d="M0 504L16 498.8C32 493.7 64 483.3 96 481.7C128 480 160 487 192 487.7C224 488.3 256 482.7 288 483.3C320 484 352 491 384 498C416 505 448 512 480 512.2C512 512.3 544 505.7 576 499.2C608 492.7 640 486.3 672 486.3C704 486.3 736 492.7 768 495C800 497.3 832 495.7 864 495.8C896 496 928 498 944 499L960 500L960 541L944 541C928 541 896 541 864 541C832 541 800 541 768 541C736 541 704 541 672 541C640 541 608 541 576 541C544 541 512 541 480 541C448 541 416 541 384 541C352 541 320 541 288 541C256 541 224 541 192 541C160 541 128 541 96 541C64 541 32 541 16 541L0 541Z" fill="#2d5929"></path></svg>